<svg width="882" height="848" fill="none" xmlns="http://www.w3.org/2000/svg"><path d="m476.631 777.403 51.251 46.495 51.251-46.495c182.03-164.502 302.204-273.347 302.204-406.144 0-108.845-85.534-193.737-194.403-193.737-61.498 0-120.525 28.532-159.052 73.268-35.553-41.283-88.563-68.767-144.865-72.763v513.93c28.881 26.937 60.206 55.25 93.614 85.446ZM352.524 647.615l.001-470.093h-58.757v58.761h-58.756v58.762h-58.756v235.046h58.756v58.761h58.756v58.763h58.756ZM117.518 177.522h58.756v58.761h-58.756v-58.761Zm-58.762 58.761H0v58.762h58.756v58.761h58.756v-58.761H58.756v-58.762ZM352.552 0h30.425v135.886h-30.425V0Zm0 716.792 30.483 28.235V847.17h-30.483V716.792Z" fill="#4A4B65"/></svg>